<svg xmlns="http://www.w3.org/2000/svg" viewBox="0 0 512 512">
  <path fill="#4CAF50" d="M480 224c-20 0-40-6.7-56.9-19c-15.5-11.3-33-22.9-52.6-32.6c-43.2-21.3-95.8-35.1-140.9-39.7c-6.7-.7-13.4-1.1-20.1-1.1c-13.6 0-26.9 1.6-39.6 4.7l-9.5 2.3c-4.8 1.2-8.7 4.2-11 8.2l-40 69.3c-4.5 7.8-14.3 10.6-22.1 6.3s-10.6-14.3-6.3-22.1l40-69.3c5.8-10 15.4-17.5 26.6-20.5l9.5-2.3C184 94.7 205.8 91.2 230 91.2c8.9 0 17.7 .5 26.5 1.5c49.3 5.3 107.5 20.4 156.4 44.5c22 10.9 41.7 23.9 58.8 36.4c5.7 4.2 11.2 8.3 16.3 12.4c17.2-26.3 27-58.4 27-92.4C515 43.1 471.9 0 418.8 0c-35.3 0-66.2 14.8-87.7 38.3C304.6 12.2 268.9 0 230 0C102.7 0 0 102.7 0 230c0 42.4 11.3 82.2 31.1 116.3l-1.6 2.6c-5.8 10-2.3 22.8 7.7 28.5s22.8 2.3 28.5-7.7l1.6-2.6C102 396.5 163.4 416 230 416c113.3 0 207.7-81.2 227-188.7c-13.4 11.6-27.1 22.1-41 31.4c-4.8 3.2-10 6.1-15.4 8.7c-7.2 3.5-10.3 12.3-6.8 19.5s12.3 10.3 19.5 6.8c9.5-4.5 18.5-9.8 26.8-15.8c38.1-27.7 67.2-61.6 79.9-73.9z"/>
  <path fill="#81C784" d="M298.7 256.7c-13 11-30.8 23.3-51.5 34.6c-5.4 3-12.2 1-15.2-4.4s-1-12.2 4.4-15.2c16.5-9 31.1-18.7 42.6-28.5c11.4-9.7 18.4-18.4 20.9-22.1c3.8-5.6 11.3-7.1 16.9-3.3s7.1 11.3 3.3 16.9c-2.3 3.4-10.3 13.5-21.4 22z"/>
</svg>
